<svg xmlns="http://www.w3.org/2000/svg" viewBox="0 0 600 490">
<defs><filter id="sh" x="-20%" y="-20%" width="140%" height="150%"><feDropShadow dx="0" dy="5" stdDeviation="5" flood-color="#3A2F1C" flood-opacity=".22"/></filter><filter id="lg" x="-20%" y="-20%" width="140%" height="140%"><feDropShadow dx="6" dy="14" stdDeviation="12" flood-color="#3A2F1C" flood-opacity=".30"/></filter></defs>
<path d="M0 160L230 40L360 110V470H0Z" fill="#FFFFFF" stroke="#000000" stroke-width="2.5" stroke-linejoin="round"/><path d="M-10 170L230 44L372 118" fill="none" stroke="#000000" stroke-width="10" stroke-linejoin="round"/><path d="M10 164.0l0 30" stroke="#D6CEBC" stroke-width="2"/><path d="M36 150.4l0 30" stroke="#D6CEBC" stroke-width="2"/><path d="M62 136.8l0 30" stroke="#D6CEBC" stroke-width="2"/><path d="M88 123.2l0 30" stroke="#D6CEBC" stroke-width="2"/><path d="M114 109.6l0 30" stroke="#D6CEBC" stroke-width="2"/><path d="M140 96.0l0 30" stroke="#D6CEBC" stroke-width="2"/><path d="M166 82.4l0 30" stroke="#D6CEBC" stroke-width="2"/><path d="M192 68.8l0 30" stroke="#D6CEBC" stroke-width="2"/><path d="M0 200L230 80L360 150" fill="none" stroke="#D6CEBC" stroke-width="2"/><rect x="0" y="210" width="360" height="260" fill="#F6F5F2" stroke="#000000" stroke-width="2.5"/><path d="M0 236H360" stroke="#D8D7D0" stroke-width="1.5"/><path d="M0 262H360" stroke="#D8D7D0" stroke-width="1.5"/><path d="M0 288H360" stroke="#D8D7D0" stroke-width="1.5"/><path d="M0 314H360" stroke="#D8D7D0" stroke-width="1.5"/><path d="M0 340H360" stroke="#D8D7D0" stroke-width="1.5"/><path d="M0 366H360" stroke="#D8D7D0" stroke-width="1.5"/><path d="M0 392H360" stroke="#D8D7D0" stroke-width="1.5"/><path d="M0 418H360" stroke="#D8D7D0" stroke-width="1.5"/><path d="M0 444H360" stroke="#D8D7D0" stroke-width="1.5"/><g transform="rotate(-12 200 280)"><g filter="url(#sh)"><rect x="140" y="80" width="16" height="400" fill="#C9C9C4" stroke="#000000" stroke-width="2.5"/><rect x="240" y="80" width="16" height="400" fill="#C9C9C4" stroke="#000000" stroke-width="2.5"/><rect x="156" y="110" width="84" height="10" fill="#C9C9C4" stroke="#000000" stroke-width="2"/><rect x="156" y="158" width="84" height="10" fill="#C9C9C4" stroke="#000000" stroke-width="2"/><rect x="156" y="206" width="84" height="10" fill="#C9C9C4" stroke="#000000" stroke-width="2"/><rect x="156" y="254" width="84" height="10" fill="#C9C9C4" stroke="#000000" stroke-width="2"/><rect x="156" y="302" width="84" height="10" fill="#C9C9C4" stroke="#000000" stroke-width="2"/><rect x="156" y="350" width="84" height="10" fill="#C9C9C4" stroke="#000000" stroke-width="2"/><rect x="156" y="398" width="84" height="10" fill="#C9C9C4" stroke="#000000" stroke-width="2"/><rect x="156" y="446" width="84" height="10" fill="#C9C9C4" stroke="#000000" stroke-width="2"/></g></g><g transform="rotate(5 455.0 290)"><rect x="318" y="56" width="274" height="400" rx="12" fill="#7A5C3A" stroke="#000000" stroke-width="2.5" filter="url(#sh)"/><rect x="330" y="80" width="250" height="364" fill="#FFFFFF" stroke="#000000" stroke-width="1.2"/><rect x="405.0" y="44" width="100" height="40" rx="8" fill="#C9C9C4" stroke="#000000" stroke-width="2.5"/><text x="350" y="136" font-size="30" font-weight="700">Estimate</text><text x="350" y="174" font-size="26" fill="#6E6D66">Roof repair</text><path d="M350 220H560" stroke="#000000" stroke-width="2"/><rect x="350" y="242" width="190" height="10" rx="5" fill="#D8D7D0"/><rect x="350" y="268" width="150" height="10" rx="5" fill="#D8D7D0"/><rect x="350" y="294" width="170" height="10" rx="5" fill="#D8D7D0"/><path d="M350 330H560" stroke="#000000" stroke-width="2"/><text x="354" y="386" font-size="28" font-weight="700">No answer</text><path d="M339 365C340 364 342 361 345 359C347 357 350 356 353 354C357 353 361 352 365 351C370 350 375 349 381 348C387 347 392 347 403 346C413 346 433 345 443 345C454 345 458 345 465 345C471 346 476 346 480 347C485 348 489 349 492 350C496 351 499 352 501 354C504 355 506 357 508 359C509 361 510 363 511 367C512 371 512 378 512 382C511 386 510 387 509 390C507 392 505 394 503 396C501 397 498 399 494 400C491 402 487 403 482 404C477 405 472 406 466 407C459 407 454 408 443 409C432 409 412 410 401 410C390 410 386 410 379 410C373 409 368 409 363 408C358 407 354 406 350 405C347 404 344 403 341 401C338 399 336 398 335 395C333 393 332 391 331 387C331 383 330 376 331 372C331 368 332 366 334 364C335 362 337 360 340 358C342 356 347 354 349 353" fill="none" stroke="#4F4C45" stroke-width="4.5" stroke-linecap="round" stroke-linejoin="round"/></g>
</svg>
