<svg xmlns="http://www.w3.org/2000/svg" viewBox="0 0 600 480">
<defs><filter id="sh" x="-20%" y="-20%" width="140%" height="150%"><feDropShadow dx="0" dy="5" stdDeviation="5" flood-color="#3A2F1C" flood-opacity=".22"/></filter><filter id="lg" x="-20%" y="-20%" width="140%" height="140%"><feDropShadow dx="6" dy="14" stdDeviation="12" flood-color="#3A2F1C" flood-opacity=".30"/></filter></defs>
<path d="M20 330H300" stroke="#000000" stroke-width="12" stroke-linecap="round"/><path d="M160 336V470M100 470H220" stroke="#000000" stroke-width="8" stroke-linecap="round"/><path d="M0 470H600" stroke="#000000" stroke-width="2.5"/><rect x="60" y="300" width="100" height="24" rx="4" fill="#E6CF9B" stroke="#000000" stroke-width="2.5"/><path d="M70 300V170M150 300V170" stroke="#000000" stroke-width="6" stroke-linecap="round"/><rect x="56" y="324" width="108" height="6" fill="#000000"/><path d="M60 324V364H160V324" fill="none" stroke="#000000" stroke-width="5"/><rect x="180" y="300" width="100" height="24" rx="4" fill="#E6CF9B" stroke="#000000" stroke-width="2.5"/><path d="M190 300V170M270 300V170" stroke="#000000" stroke-width="6" stroke-linecap="round"/><rect x="176" y="324" width="108" height="6" fill="#000000"/><path d="M180 324V364H280V324" fill="none" stroke="#000000" stroke-width="5"/><g transform="rotate(2 445.0 230.0)"><rect x="300" y="20" width="290" height="420" fill="#FFFFFF" stroke="#000000" stroke-width="1.5" filter="url(#lg)"/><text x="322" y="72" font-size="28" font-weight="700">Sales by night</text><g transform="rotate(-6 509.32 140)"><rect x="452.64" y="118" width="113.36000000000001" height="40" rx="4" fill="#FFFFFF" stroke="#4F4C45" stroke-width="3"/><text x="509.32" y="147" font-size="26" font-weight="700" fill="#4F4C45" text-anchor="middle">Sample</text></g><path d="M320 360H570" stroke="#000000" stroke-width="2"/><rect x="326" y="250" width="26" height="110" fill="#000000" stroke="#000000" stroke-width="1.5"/><text x="339" y="394" font-size="26" font-weight="700" text-anchor="middle">M</text><rect x="362" y="316" width="26" height="44" fill="#D6CEBC" stroke="#000000" stroke-width="1.5"/><text x="375" y="394" font-size="26" font-weight="700" text-anchor="middle">T</text><rect x="398" y="260" width="26" height="100" fill="#000000" stroke="#000000" stroke-width="1.5"/><text x="411" y="394" font-size="26" font-weight="700" text-anchor="middle">W</text><rect x="434" y="236" width="26" height="124" fill="#000000" stroke="#000000" stroke-width="1.5"/><text x="447" y="394" font-size="26" font-weight="700" text-anchor="middle">T</text><rect x="470" y="180" width="26" height="180" fill="#000000" stroke="#000000" stroke-width="1.5"/><text x="483" y="394" font-size="26" font-weight="700" text-anchor="middle">F</text><rect x="506" y="160" width="26" height="200" fill="#000000" stroke="#000000" stroke-width="1.5"/><text x="519" y="394" font-size="26" font-weight="700" text-anchor="middle">S</text><rect x="542" y="220" width="26" height="140" fill="#000000" stroke="#000000" stroke-width="1.5"/><text x="555" y="394" font-size="26" font-weight="700" text-anchor="middle">S</text><path d="M344 320C344 318 345 312 346 308C346 305 347 302 348 299C349 297 351 295 352 293C354 291 355 289 357 288C359 287 361 286 364 286C368 285 375 285 378 285C382 285 383 286 385 287C387 288 389 290 391 291C392 293 394 295 395 298C396 300 397 303 398 307C399 310 400 314 401 318C401 323 402 327 402 335C403 343 403 358 403 365C403 373 403 377 403 381C402 386 402 390 401 393C401 397 400 400 399 402C397 405 396 407 395 409C393 411 391 413 389 414C387 415 385 416 382 416C378 417 371 417 368 417C364 417 363 416 360 415C358 414 356 412 355 411C353 409 352 407 350 404C349 401 348 398 347 395C346 391 345 387 344 383C344 378 343 374 343 366C342 357 342 342 342 334C342 326 342 322 342 318C343 313 343 309 344 305C345 302 346 298 347 296" fill="none" stroke="#4F4C45" stroke-width="4.5" stroke-linecap="round" stroke-linejoin="round"/></g>
</svg>
